<?xml version="1.0" standalone="no"?>
<!DOCTYPE svg PUBLIC "-//W3C//DTD SVG 20010904//EN"
 "http://www.w3.org/TR/2001/REC-SVG-20010904/DTD/svg10.dtd">
<svg version="1.0" xmlns="http://www.w3.org/2000/svg"
 width="60.000000pt" height="60.000000pt" viewBox="0 40 200.000000 200.000000"
 preserveAspectRatio="xMidYMid meet">
<g transform="translate(0.000000,200.000000) scale(0.100000,-0.100000)"
fill="#000000" stroke="none">
<path d="M1438 1609 l-31 -30 5 -273 5 -273 -43 30 c-50 35 -67 31 -91 -17
-16 -34 -16 -36 15 -98 17 -35 54 -88 81 -120 l51 -56 0 -71 c0 -38 -4 -73
-10 -76 -10 -6 -70 21 -70 33 -1 4 -18 27 -39 51 l-39 43 -56 -42 c-31 -23
-56 -46 -56 -50 0 -19 94 -132 132 -160 53 -39 81 -46 120 -29 42 17 67 77 75
178 l6 80 27 -14 c15 -8 48 -19 74 -26 42 -10 52 -19 98 -85 44 -63 54 -72 70
-63 15 8 18 22 18 84 0 72 1 75 29 89 47 25 91 67 91 87 0 30 -28 34 -55 9
-14 -13 -32 -20 -47 -18 -21 3 -23 9 -30 88 -3 47 -6 201 -7 342 -1 153 -5
259 -11 263 -5 3 -19 -4 -30 -15 -17 -17 -20 -29 -16 -68 3 -26 8 -172 11
-325 l6 -278 -28 7 c-59 14 -114 51 -162 108 l-49 58 -8 107 c-4 58 -4 208 -1
334 4 125 4 227 1 227 -3 0 -19 -14 -36 -31z m282 -939 c0 -5 -2 -10 -4 -10
-3 0 -8 5 -11 10 -3 6 -1 10 4 10 6 0 11 -4 11 -10z"/>
<path d="M1190 1533 c-190 -33 -432 -103 -538 -157 -48 -24 -53 -30 -68 -82
-9 -34 -12 -60 -7 -65 6 -6 32 3 66 21 30 17 95 44 144 61 100 34 343 94 418
104 28 3 59 8 71 10 24 5 44 44 44 85 0 30 -1 30 -52 29 -29 -1 -64 -4 -78 -6z"/>
<path d="M931 1306 c-38 -45 -85 -298 -85 -461 -1 -190 34 -265 124 -265 46 0
121 39 137 70 15 31 9 40 -29 40 -67 0 -122 113 -134 274 -5 71 4 201 23 319
4 29 2 37 -9 37 -9 0 -21 -6 -27 -14z"/>
<path d="M121 464 c-26 -32 -26 -46 -3 -72 27 -31 55 -35 85 -11 32 25 35 61
7 89 -28 28 -64 25 -89 -6z"/>
<path d="M482 474 c-45 -31 -20 -107 36 -107 42 0 62 19 62 58 0 56 -51 82
-98 49z"/>
<path d="M830 470 c-11 -11 -20 -29 -20 -40 0 -25 42 -70 65 -70 23 0 65 45
65 70 0 28 -35 60 -65 60 -14 0 -34 -9 -45 -20z"/>
</g>
</svg>
